<svg xmlns="http://www.w3.org/2000/svg" xmlns:xlink="http://www.w3.org/1999/xlink" width="20" height="15" viewBox="0 0 20 15">
  <defs>
    <clipPath id="clip-Artboard_5">
      <rect width="20" height="15"/>
    </clipPath>
  </defs>
  <g id="Artboard_5" data-name="Artboard – 5" clip-path="url(#clip-Artboard_5)">
    <path id="Path_38" data-name="Path 38" d="M3.866-2.991A1.376,1.376,0,0,0,4.286-4a1.376,1.376,0,0,0-.42-1.009,1.376,1.376,0,0,0-1.009-.42,1.376,1.376,0,0,0-1.009.42A1.376,1.376,0,0,0,1.429-4a1.376,1.376,0,0,0,.42,1.009,1.376,1.376,0,0,0,1.009.42A1.376,1.376,0,0,0,3.866-2.991Zm.741-3.866h9.071l-.795-3.187a.325.325,0,0,0-.125-.156.322.322,0,0,0-.187-.085H5.714a.322.322,0,0,0-.187.085.325.325,0,0,0-.125.156Zm11.83,3.866A1.376,1.376,0,0,0,16.857-4a1.376,1.376,0,0,0-.42-1.009,1.376,1.376,0,0,0-1.009-.42,1.376,1.376,0,0,0-1.009.42A1.376,1.376,0,0,0,14-4a1.376,1.376,0,0,0,.42,1.009,1.376,1.376,0,0,0,1.009.42A1.376,1.376,0,0,0,16.438-2.991Zm1.848-1.866v3.429a.278.278,0,0,1-.08.205.278.278,0,0,1-.205.08h-.857V0a1.653,1.653,0,0,1-.5,1.214,1.724,1.724,0,0,1-2.429,0A1.653,1.653,0,0,1,13.714,0V-1.143H4.571V0a1.653,1.653,0,0,1-.5,1.214,1.653,1.653,0,0,1-1.214.5,1.653,1.653,0,0,1-1.214-.5A1.653,1.653,0,0,1,1.143,0V-1.143H.286a.278.278,0,0,1-.205-.08A.278.278,0,0,1,0-1.429V-4.857A1.928,1.928,0,0,1,.585-6.272,1.928,1.928,0,0,1,2-6.857h.25L3.188-10.6A2.511,2.511,0,0,1,4.116-12a2.53,2.53,0,0,1,1.6-.567h6.857a2.53,2.53,0,0,1,1.6.567A2.511,2.511,0,0,1,15.1-10.6l.938,3.741h.25a1.928,1.928,0,0,1,1.415.585A1.928,1.928,0,0,1,18.286-4.857Z" transform="translate(1 13)" fill="#333"/>
  </g>
</svg>
