<svg xmlns="http://www.w3.org/2000/svg" xmlns:xlink="http://www.w3.org/1999/xlink" width="30" height="40" viewBox="0 0 30 40">
  <defs>
    <clipPath id="clip-Artboard_2">
      <rect width="30" height="40"/>
    </clipPath>
  </defs>
  <g id="Artboard_2" data-name="Artboard – 2" clip-path="url(#clip-Artboard_2)">
    <g id="Group_155" data-name="Group 155" transform="translate(-5 -1.6)">
      <g id="Group_153" data-name="Group 153" transform="translate(-208 -316)">
        <g id="Path_36" data-name="Path 36" transform="translate(214 318)" fill="#333">
          <path d="M 14.06581401824951 38.56824493408203 C 13.19528293609619 37.60713958740234 10.12782096862793 33.71235656738281 7.018990039825439 28.86923789978027 C 1.630980014801025 20.47549629211426 0.5 16.15031623840332 0.5 13.99999713897705 C 0.5 10.39401721954346 1.904240012168884 7.003867149353027 4.454060077667236 4.454057216644287 C 7.003870010375977 1.904247045516968 10.39402008056641 0.499997079372406 14 0.499997079372406 C 17.60597991943359 0.499997079372406 20.99612998962402 1.904247045516968 23.54594039916992 4.454057216644287 C 26.09576034545898 7.003867149353027 27.5 10.39401721954346 27.5 13.99999713897705 C 27.5 17.03761672973633 25.25494956970215 22.29598617553711 21.17841911315918 28.80646705627441 C 18.00125122070312 33.88063049316406 14.97296905517578 37.70446395874023 14.06581401824951 38.56824493408203 Z" stroke="none"/>
          <path d="M 14 0.9999961853027344 C 10.5275707244873 0.9999961853027344 7.262990951538086 2.352237701416016 4.807609558105469 4.807605743408203 C 2.352239608764648 7.262985229492188 1 10.5275764465332 1 13.99999618530273 C 1 16.92236709594727 3.256069183349609 22.0588264465332 7.352630615234375 28.46317672729492 C 10.07431030273438 32.71810150146484 12.9018030166626 36.41973495483398 14.08327388763428 37.82740783691406 C 15.23801898956299 36.54710388183594 17.97320938110352 33.00677871704102 20.87224960327148 28.35281753540039 C 24.82378959655762 22.00922775268555 27 16.91195678710938 27 13.99999618530273 C 27 10.5275764465332 25.64776039123535 7.262985229492188 23.19239044189453 4.807605743408203 C 20.73701095581055 2.352237701416016 17.47241973876953 0.9999961853027344 14 0.9999961853027344 M 14 -3.814697265625e-06 C 21.73197937011719 -3.814697265625e-06 28 6.268016815185547 28 13.99999618530273 C 28 21.73198699951172 14.67528438568115 39.5350341796875 14 39.1956787109375 C 13.32470989227295 38.85632705688477 0 21.73198699951172 0 13.99999618530273 C 0 6.268016815185547 6.268009185791016 -3.814697265625e-06 14 -3.814697265625e-06 Z" stroke="none" fill="#fff"/>
        </g>
      </g>
      <path id="Path_37" data-name="Path 37" d="M3.866-2.991A1.376,1.376,0,0,0,4.286-4a1.376,1.376,0,0,0-.42-1.009,1.376,1.376,0,0,0-1.009-.42,1.376,1.376,0,0,0-1.009.42A1.376,1.376,0,0,0,1.429-4a1.376,1.376,0,0,0,.42,1.009,1.376,1.376,0,0,0,1.009.42A1.376,1.376,0,0,0,3.866-2.991Zm.741-3.866h9.071l-.795-3.187a.325.325,0,0,0-.125-.156.322.322,0,0,0-.187-.085H5.714a.322.322,0,0,0-.187.085.325.325,0,0,0-.125.156Zm11.83,3.866A1.376,1.376,0,0,0,16.857-4a1.376,1.376,0,0,0-.42-1.009,1.376,1.376,0,0,0-1.009-.42,1.376,1.376,0,0,0-1.009.42A1.376,1.376,0,0,0,14-4a1.376,1.376,0,0,0,.42,1.009,1.376,1.376,0,0,0,1.009.42A1.376,1.376,0,0,0,16.438-2.991Zm1.848-1.866v3.429a.278.278,0,0,1-.08.205.278.278,0,0,1-.205.08h-.857V0a1.653,1.653,0,0,1-.5,1.214,1.724,1.724,0,0,1-2.429,0A1.653,1.653,0,0,1,13.714,0V-1.143H4.571V0a1.653,1.653,0,0,1-.5,1.214,1.653,1.653,0,0,1-1.214.5,1.653,1.653,0,0,1-1.214-.5A1.653,1.653,0,0,1,1.143,0V-1.143H.286a.278.278,0,0,1-.205-.08A.278.278,0,0,1,0-1.429V-4.857A1.928,1.928,0,0,1,.585-6.272,1.928,1.928,0,0,1,2-6.857h.25L3.188-10.6A2.511,2.511,0,0,1,4.116-12a2.53,2.53,0,0,1,1.6-.567h6.857a2.53,2.53,0,0,1,1.6.567A2.511,2.511,0,0,1,15.1-10.6l.938,3.741h.25a1.928,1.928,0,0,1,1.415.585A1.928,1.928,0,0,1,18.286-4.857Z" transform="translate(11 19)" fill="#fff"/>
    </g>
  </g>
</svg>
