<svg xmlns="http://www.w3.org/2000/svg" xmlns:xlink="http://www.w3.org/1999/xlink" width="30" height="40" viewBox="0 0 30 40">
  <defs>
    <clipPath id="clip-Artboard_6">
      <rect width="30" height="40"/>
    </clipPath>
  </defs>
  <g id="Artboard_6" data-name="Artboard – 6" clip-path="url(#clip-Artboard_6)">
    <g id="Group_156" data-name="Group 156" transform="translate(-213 -317.6)">
      <g id="Path_36" data-name="Path 36" transform="translate(214 318)" fill="#333">
        <path d="M 14.06581401824951 38.56824493408203 C 13.19528293609619 37.60713958740234 10.12782096862793 33.71235656738281 7.018990039825439 28.86923789978027 C 1.630980014801025 20.47549629211426 0.5 16.15031623840332 0.5 13.99999713897705 C 0.5 10.39401721954346 1.904240012168884 7.003867149353027 4.454060077667236 4.454057216644287 C 7.003870010375977 1.904247045516968 10.39402008056641 0.499997079372406 14 0.499997079372406 C 17.60597991943359 0.499997079372406 20.99612998962402 1.904247045516968 23.54594039916992 4.454057216644287 C 26.09576034545898 7.003867149353027 27.5 10.39401721954346 27.5 13.99999713897705 C 27.5 17.03761672973633 25.25494956970215 22.29598617553711 21.17841911315918 28.80646705627441 C 18.00125122070312 33.88063049316406 14.97296905517578 37.70446395874023 14.06581401824951 38.56824493408203 Z" stroke="none"/>
        <path d="M 14 0.9999961853027344 C 10.5275707244873 0.9999961853027344 7.262990951538086 2.352237701416016 4.807609558105469 4.807605743408203 C 2.352239608764648 7.262985229492188 1 10.5275764465332 1 13.99999618530273 C 1 16.92236709594727 3.256069183349609 22.0588264465332 7.352630615234375 28.46317672729492 C 10.07431030273438 32.71810150146484 12.9018030166626 36.41973495483398 14.08327388763428 37.82740783691406 C 15.23801898956299 36.54710388183594 17.97320938110352 33.00677871704102 20.87224960327148 28.35281753540039 C 24.82378959655762 22.00922775268555 27 16.91195678710938 27 13.99999618530273 C 27 10.5275764465332 25.64776039123535 7.262985229492188 23.19239044189453 4.807605743408203 C 20.73701095581055 2.352237701416016 17.47241973876953 0.9999961853027344 14 0.9999961853027344 M 14 -3.814697265625e-06 C 21.73197937011719 -3.814697265625e-06 28 6.268016815185547 28 13.99999618530273 C 28 21.73198699951172 14.67528438568115 39.5350341796875 14 39.1956787109375 C 13.32470989227295 38.85632705688477 0 21.73198699951172 0 13.99999618530273 C 0 6.268016815185547 6.268009185791016 -3.814697265625e-06 14 -3.814697265625e-06 Z" stroke="none" fill="#fff"/>
      </g>
      <g id="Military__74_Converted_" data-name="Military_(74) [Converted]" transform="translate(219.055 321.913)">
        <path id="Path_35" data-name="Path 35" d="M51.318,121.218a50.155,50.155,0,0,1-3.157,9.1H42.536a.282.282,0,0,1-.221-.457l8.712-12.946h0a.282.282,0,0,1,.479.02l8.71,12.947h0a.282.282,0,0,1-.236.438H54.359A49.819,49.819,0,0,1,51.318,121.218Z" transform="translate(-42.141 -114.738)" fill="#fff"/>
        <rect id="Rectangle_191" data-name="Rectangle 191" width="0.563" height="2.337" transform="translate(8.837)" fill="#fff"/>
        <rect id="Rectangle_192" data-name="Rectangle 192" width="0.563" height="2.763" transform="translate(0.09 12.545) rotate(-1)" fill="#fff"/>
        <rect id="Rectangle_193" data-name="Rectangle 193" width="0.563" height="2.763" transform="translate(17.562 12.54)" fill="#fff"/>
      </g>
    </g>
  </g>
</svg>
